# xmcd
#
# Track frame offsets: 
#        150
#        14294
#        42582
#        66304
#        90780
#        124833
#        141482
#        163249
#        186563
#        208917
#
# Disc length: 3111 seconds
#
# Revision: 1
# Processed by: cddbd v1.5.2PL0 Copyright (c) Steve Scherf et al.
# Submitted via: ExactAudioCopy v0.99pb5
#
DISCID=990c250a
DTITLE=Eddie Kirkland - Democrat Blues
DYEAR=2004
DGENRE=Blues
TTITLE0=Walk In The Dark
TTITLE1=Slow Driving
TTITLE2=Ten Commandments
TTITLE3=Democrat Blues
TTITLE4=Call Me On The Phone - The Thrill is Gone
TTITLE5=I've Got My Bloodshot Eyes On You
TTITLE6=Must've Done Something Wrong
TTITLE7=Too Late
TTITLE8=Good Time Joe
TTITLE9=Rockin' and Rollin'
EXTD=YEAR: 2004
EXTT0=
EXTT1=
EXTT2=
EXTT3=
EXTT4=
EXTT5=
EXTT6=
EXTT7=
EXTT8=
EXTT9=
PLAYORDER=
